<?xml version="1.0" encoding="utf-8"?>
<!-- Generator: Adobe Illustrator 15.1.0, SVG Export Plug-In . SVG Version: 6.00 Build 0)  -->
<!DOCTYPE svg PUBLIC "-//W3C//DTD SVG 1.1//EN" "http://www.w3.org/Graphics/SVG/1.1/DTD/svg11.dtd">
<svg version="1.1" id="Layer_1" xmlns="http://www.w3.org/2000/svg" xmlns:xlink="http://www.w3.org/1999/xlink" x="0px" y="0px"
	 width="140.43px" height="150.879px" viewBox="0 0 140.43 150.879" enable-background="new 0 0 140.43 150.879"
	 xml:space="preserve">
<g>
	<path d="M140.43,30.273l-11.328,8.691c-6.25-8.138-13.754-14.307-22.51-18.506c-8.757-4.199-18.376-6.299-28.857-6.299
		c-11.459,0-22.07,2.751-31.836,8.252c-9.766,5.502-17.334,12.891-22.705,22.168s-8.057,19.711-8.057,31.299
		c0,17.514,6.006,32.129,18.018,43.848s27.164,17.578,45.459,17.578c20.117,0,36.946-7.877,50.488-23.633l11.328,8.594
		c-7.163,9.115-16.098,16.162-26.807,21.143c-10.71,4.98-22.673,7.471-35.889,7.471c-25.131,0-44.956-8.365-59.473-25.098
		C6.087,111.655,0,94.597,0,74.609c0-21.028,7.373-38.721,22.119-53.076S55.337,0,77.539,0c13.411,0,25.521,2.653,36.328,7.959
		C124.673,13.266,133.528,20.703,140.43,30.273z"/>
</g>
</svg>
