<?xml version="1.0" encoding="utf-8"?>
<!-- Generator: Adobe Illustrator 15.1.0, SVG Export Plug-In . SVG Version: 6.00 Build 0)  -->
<!DOCTYPE svg PUBLIC "-//W3C//DTD SVG 1.1//EN" "http://www.w3.org/Graphics/SVG/1.1/DTD/svg11.dtd">
<svg version="1.1" id="Layer_1" xmlns="http://www.w3.org/2000/svg" xmlns:xlink="http://www.w3.org/1999/xlink" x="0px" y="0px"
	 width="120.996px" height="143.652px" viewBox="0 0 120.996 143.652" enable-background="new 0 0 120.996 143.652"
	 xml:space="preserve">
<g>
	<path d="M0,143.652V0h29.785C51.27,0,66.861,1.726,76.563,5.176c13.931,4.883,24.82,13.347,32.666,25.391
		c7.845,12.045,11.768,26.401,11.768,43.066c0,14.389-3.11,27.051-9.326,37.988c-6.218,10.938-14.292,19.011-24.219,24.219
		c-9.929,5.209-23.845,7.813-41.748,7.813H0z M13.77,130.078h16.602c19.856,0,33.626-1.236,41.309-3.708
		c10.806-3.513,19.302-9.837,25.488-18.977c6.185-9.14,9.277-20.313,9.277-33.518c0-13.855-3.354-25.694-10.059-35.517
		c-6.706-9.822-16.049-16.554-28.027-20.198c-8.984-2.731-23.796-4.099-44.434-4.099H13.77V130.078z"/>
</g>
</svg>
